<svg width="280" height="70" viewBox="110 220 280 70" fill="none" xmlns="http://www.w3.org/2000/svg">
<rect x="110" y="220" width="280" height="70" fill="#0F2A44"/>
<line x1="271.5" y1="226" x2="271.5" y2="284" stroke="white"/>
<path d="M282.885 239V228.818H285.038V233.019H289.408V228.818H291.555V239H289.408V234.794H285.038V239H282.885ZM293.33 239V228.818H300.191V230.593H295.483V233.019H299.838V234.794H295.483V237.225H300.211V239H293.33ZM303.657 239H301.351L304.866 228.818H307.64L311.15 239H308.843L306.292 231.145H306.213L303.657 239ZM303.513 234.998H308.962V236.678H303.513V234.998ZM312.375 239V228.818H314.528V237.225H318.893V239H312.375ZM318.659 230.593V228.818H327.021V230.593H323.904V239H321.776V230.593H318.659ZM328.399 239V228.818H330.551V233.019H334.921V228.818H337.069V239H334.921V234.794H330.551V239H328.399ZM347.828 232.383H345.65C345.61 232.101 345.529 231.851 345.406 231.632C345.284 231.41 345.126 231.221 344.934 231.065C344.742 230.91 344.52 230.79 344.268 230.707C344.019 230.625 343.749 230.583 343.458 230.583C342.931 230.583 342.472 230.714 342.08 230.976C341.689 231.234 341.386 231.612 341.171 232.109C340.955 232.603 340.847 233.203 340.847 233.909C340.847 234.635 340.955 235.245 341.171 235.739C341.389 236.232 341.694 236.605 342.085 236.857C342.477 237.109 342.929 237.235 343.443 237.235C343.731 237.235 343.998 237.197 344.243 237.121C344.492 237.045 344.712 236.933 344.904 236.788C345.097 236.638 345.256 236.458 345.382 236.246C345.511 236.034 345.6 235.792 345.65 235.52L347.828 235.53C347.771 235.997 347.63 236.448 347.405 236.882C347.183 237.313 346.883 237.699 346.505 238.04C346.131 238.379 345.683 238.647 345.163 238.846C344.646 239.041 344.061 239.139 343.408 239.139C342.5 239.139 341.688 238.934 340.972 238.523C340.259 238.112 339.696 237.517 339.281 236.738C338.87 235.959 338.665 235.016 338.665 233.909C338.665 232.799 338.874 231.854 339.291 231.075C339.709 230.296 340.276 229.703 340.992 229.295C341.708 228.884 342.513 228.679 343.408 228.679C343.998 228.679 344.545 228.762 345.048 228.928C345.556 229.093 346.005 229.335 346.396 229.653C346.787 229.968 347.105 230.354 347.35 230.812C347.599 231.269 347.758 231.793 347.828 232.383ZM350.935 239H348.628L352.143 228.818H354.917L358.427 239H356.12L353.57 231.145H353.49L350.935 239ZM350.791 234.998H356.24V236.678H350.791V234.998ZM359.653 239V228.818H363.67C364.439 228.818 365.095 228.956 365.638 229.231C366.185 229.503 366.601 229.889 366.886 230.389C367.175 230.886 367.319 231.471 367.319 232.144C367.319 232.82 367.173 233.402 366.881 233.889C366.59 234.373 366.167 234.744 365.613 235.003C365.063 235.261 364.397 235.391 363.615 235.391H360.925V233.661H363.267C363.678 233.661 364.019 233.604 364.291 233.491C364.563 233.379 364.765 233.21 364.898 232.984C365.033 232.759 365.101 232.479 365.101 232.144C365.101 231.806 365.033 231.521 364.898 231.289C364.765 231.057 364.561 230.881 364.286 230.762C364.014 230.639 363.671 230.578 363.257 230.578H361.805V239H359.653ZM365.151 234.366L367.682 239H365.305L362.829 234.366H365.151ZM368.84 239V228.818H375.701V230.593H370.993V233.019H375.348V234.794H370.993V237.225H375.721V239H368.84ZM282.497 250.593V248.818H290.859V250.593H287.742V259H285.614V250.593H282.497ZM292.237 259V248.818H299.097V250.593H294.389V253.019H298.744V254.794H294.389V257.225H299.117V259H292.237ZM309.792 252.383H307.615C307.575 252.101 307.494 251.851 307.371 251.632C307.249 251.41 307.091 251.221 306.899 251.065C306.707 250.91 306.485 250.79 306.233 250.707C305.984 250.625 305.714 250.583 305.422 250.583C304.895 250.583 304.436 250.714 304.045 250.976C303.654 251.234 303.351 251.612 303.135 252.109C302.92 252.603 302.812 253.203 302.812 253.909C302.812 254.635 302.92 255.245 303.135 255.739C303.354 256.232 303.659 256.605 304.05 256.857C304.441 257.109 304.894 257.235 305.407 257.235C305.696 257.235 305.963 257.197 306.208 257.121C306.456 257.045 306.677 256.933 306.869 256.788C307.061 256.638 307.22 256.458 307.346 256.246C307.476 256.034 307.565 255.792 307.615 255.52L309.792 255.53C309.736 255.997 309.595 256.448 309.37 256.882C309.148 257.313 308.848 257.699 308.47 258.04C308.095 258.379 307.648 258.647 307.128 258.846C306.611 259.041 306.026 259.139 305.373 259.139C304.465 259.139 303.653 258.934 302.937 258.523C302.224 258.112 301.661 257.517 301.246 256.738C300.835 255.959 300.63 255.016 300.63 253.909C300.63 252.799 300.839 251.854 301.256 251.075C301.674 250.296 302.241 249.703 302.956 249.295C303.672 248.884 304.478 248.679 305.373 248.679C305.963 248.679 306.51 248.762 307.013 248.928C307.52 249.093 307.97 249.335 308.361 249.653C308.752 249.968 309.07 250.354 309.315 250.812C309.564 251.269 309.723 251.793 309.792 252.383ZM311.336 259V248.818H313.489V253.019H317.859V248.818H320.007V259H317.859V254.794H313.489V259H311.336ZM330.298 248.818V259H328.438L324.009 252.592H323.934V259H321.781V248.818H323.671L328.066 255.222H328.155V248.818H330.298ZM341.433 253.909C341.433 255.019 341.222 255.964 340.801 256.743C340.384 257.522 339.814 258.117 339.091 258.528C338.372 258.935 337.563 259.139 336.665 259.139C335.76 259.139 334.948 258.934 334.229 258.523C333.51 258.112 332.941 257.517 332.524 256.738C332.106 255.959 331.897 255.016 331.897 253.909C331.897 252.799 332.106 251.854 332.524 251.075C332.941 250.296 333.51 249.703 334.229 249.295C334.948 248.884 335.76 248.679 336.665 248.679C337.563 248.679 338.372 248.884 339.091 249.295C339.814 249.703 340.384 250.296 340.801 251.075C341.222 251.854 341.433 252.799 341.433 253.909ZM339.25 253.909C339.25 253.19 339.143 252.583 338.927 252.089C338.715 251.596 338.415 251.221 338.027 250.966C337.64 250.711 337.185 250.583 336.665 250.583C336.145 250.583 335.691 250.711 335.303 250.966C334.915 251.221 334.614 251.596 334.398 252.089C334.186 252.583 334.08 253.19 334.08 253.909C334.08 254.628 334.186 255.235 334.398 255.729C334.614 256.223 334.915 256.597 335.303 256.852C335.691 257.107 336.145 257.235 336.665 257.235C337.185 257.235 337.64 257.107 338.027 256.852C338.415 256.597 338.715 256.223 338.927 255.729C339.143 255.235 339.25 254.628 339.25 253.909ZM343.028 259V248.818H345.18V257.225H349.545V259H343.028ZM359.931 253.909C359.931 255.019 359.72 255.964 359.3 256.743C358.882 257.522 358.312 258.117 357.589 258.528C356.87 258.935 356.061 259.139 355.163 259.139C354.258 259.139 353.446 258.934 352.727 258.523C352.008 258.112 351.439 257.517 351.022 256.738C350.604 255.959 350.395 255.016 350.395 253.909C350.395 252.799 350.604 251.854 351.022 251.075C351.439 250.296 352.008 249.703 352.727 249.295C353.446 248.884 354.258 248.679 355.163 248.679C356.061 248.679 356.87 248.884 357.589 249.295C358.312 249.703 358.882 250.296 359.3 251.075C359.72 251.854 359.931 252.799 359.931 253.909ZM357.748 253.909C357.748 253.19 357.641 252.583 357.425 252.089C357.213 251.596 356.913 251.221 356.525 250.966C356.138 250.711 355.684 250.583 355.163 250.583C354.643 250.583 354.189 250.711 353.801 250.966C353.413 251.221 353.112 251.596 352.896 252.089C352.684 252.583 352.578 253.19 352.578 253.909C352.578 254.628 352.684 255.235 352.896 255.729C353.112 256.223 353.413 256.597 353.801 256.852C354.189 257.107 354.643 257.235 355.163 257.235C355.684 257.235 356.138 257.107 356.525 256.852C356.913 256.597 357.213 256.223 357.425 255.729C357.641 255.235 357.748 254.628 357.748 253.909ZM368.277 252.109C368.207 251.867 368.11 251.654 367.984 251.468C367.858 251.279 367.704 251.12 367.521 250.991C367.342 250.858 367.137 250.757 366.905 250.688C366.676 250.618 366.423 250.583 366.144 250.583C365.624 250.583 365.166 250.712 364.772 250.971C364.381 251.229 364.076 251.606 363.857 252.099C363.638 252.59 363.529 253.19 363.529 253.899C363.529 254.608 363.637 255.212 363.852 255.709C364.068 256.206 364.373 256.585 364.767 256.847C365.161 257.106 365.627 257.235 366.164 257.235C366.651 257.235 367.067 257.149 367.412 256.977C367.76 256.801 368.025 256.554 368.207 256.236C368.393 255.918 368.486 255.541 368.486 255.107L368.923 255.172H366.298V253.551H370.559V254.834C370.559 255.729 370.37 256.498 369.992 257.141C369.614 257.78 369.094 258.274 368.431 258.622C367.768 258.967 367.009 259.139 366.154 259.139C365.2 259.139 364.361 258.929 363.638 258.508C362.916 258.084 362.353 257.482 361.948 256.703C361.547 255.921 361.347 254.993 361.347 253.919C361.347 253.094 361.466 252.358 361.705 251.712C361.946 251.062 362.285 250.512 362.719 250.061C363.153 249.61 363.658 249.267 364.235 249.032C364.812 248.797 365.437 248.679 366.109 248.679C366.686 248.679 367.223 248.763 367.72 248.933C368.217 249.098 368.658 249.334 369.043 249.638C369.43 249.943 369.747 250.306 369.992 250.727C370.237 251.145 370.395 251.606 370.464 252.109H368.277ZM371.169 248.818H373.58L375.902 253.203H376.002L378.323 248.818H380.735L377.021 255.401V259H374.883V255.401L371.169 248.818ZM284.64 279H282.333L285.848 268.818H288.622L292.132 279H289.825L287.275 271.145H287.195L284.64 279ZM284.496 274.998H289.945V276.678H284.496V274.998ZM296.967 279H293.358V268.818H296.997C298.021 268.818 298.903 269.022 299.642 269.43C300.381 269.834 300.949 270.416 301.347 271.175C301.748 271.934 301.949 272.842 301.949 273.899C301.949 274.96 301.748 275.871 301.347 276.634C300.949 277.396 300.377 277.981 299.632 278.388C298.889 278.796 298.001 279 296.967 279ZM295.51 277.156H296.877C297.514 277.156 298.049 277.043 298.483 276.817C298.921 276.589 299.249 276.236 299.468 275.759C299.69 275.278 299.801 274.658 299.801 273.899C299.801 273.147 299.69 272.532 299.468 272.055C299.249 271.577 298.922 271.226 298.488 271.001C298.054 270.775 297.519 270.663 296.882 270.663H295.51V277.156ZM304.808 268.818L307.269 276.554H307.364L309.83 268.818H312.216L308.706 279H305.932L302.417 268.818H304.808ZM315.594 268.818V279H313.442V268.818H315.594ZM322.889 271.746C322.849 271.345 322.678 271.034 322.377 270.812C322.075 270.59 321.666 270.479 321.149 270.479C320.797 270.479 320.501 270.528 320.259 270.628C320.017 270.724 319.831 270.858 319.702 271.031C319.576 271.203 319.513 271.398 319.513 271.617C319.507 271.799 319.545 271.959 319.627 272.094C319.714 272.23 319.831 272.348 319.98 272.447C320.13 272.544 320.302 272.628 320.498 272.701C320.693 272.771 320.902 272.83 321.124 272.88L322.039 273.099C322.483 273.198 322.891 273.331 323.262 273.496C323.633 273.662 323.954 273.866 324.226 274.108C324.498 274.35 324.708 274.635 324.858 274.963C325.01 275.291 325.088 275.667 325.091 276.092C325.088 276.715 324.929 277.255 324.614 277.712C324.302 278.166 323.852 278.519 323.262 278.771C322.675 279.02 321.967 279.144 321.139 279.144C320.317 279.144 319.601 279.018 318.991 278.766C318.385 278.514 317.911 278.142 317.569 277.648C317.231 277.151 317.054 276.536 317.037 275.803H319.12C319.144 276.145 319.241 276.43 319.414 276.658C319.589 276.884 319.823 277.054 320.115 277.17C320.41 277.283 320.743 277.339 321.114 277.339C321.479 277.339 321.795 277.286 322.064 277.18C322.335 277.074 322.546 276.927 322.695 276.738C322.844 276.549 322.919 276.332 322.919 276.087C322.919 275.858 322.851 275.666 322.715 275.51C322.582 275.354 322.387 275.222 322.128 275.112C321.873 275.003 321.56 274.903 321.189 274.814L320.08 274.536C319.221 274.327 318.544 274 318.047 273.556C317.549 273.112 317.302 272.514 317.306 271.761C317.302 271.145 317.467 270.606 317.798 270.146C318.133 269.685 318.592 269.325 319.175 269.067C319.758 268.808 320.421 268.679 321.164 268.679C321.919 268.679 322.579 268.808 323.142 269.067C323.709 269.325 324.15 269.685 324.465 270.146C324.78 270.606 324.942 271.14 324.952 271.746H322.889ZM335.896 273.909C335.896 275.019 335.685 275.964 335.264 276.743C334.847 277.522 334.277 278.117 333.554 278.528C332.835 278.935 332.026 279.139 331.128 279.139C330.223 279.139 329.411 278.934 328.692 278.523C327.973 278.112 327.404 277.517 326.987 276.738C326.569 275.959 326.36 275.016 326.36 273.909C326.36 272.799 326.569 271.854 326.987 271.075C327.404 270.296 327.973 269.703 328.692 269.295C329.411 268.884 330.223 268.679 331.128 268.679C332.026 268.679 332.835 268.884 333.554 269.295C334.277 269.703 334.847 270.296 335.264 271.075C335.685 271.854 335.896 272.799 335.896 273.909ZM333.713 273.909C333.713 273.19 333.606 272.583 333.39 272.089C333.178 271.596 332.878 271.221 332.49 270.966C332.102 270.711 331.648 270.583 331.128 270.583C330.608 270.583 330.154 270.711 329.766 270.966C329.378 271.221 329.076 271.596 328.861 272.089C328.649 272.583 328.543 273.19 328.543 273.909C328.543 274.628 328.649 275.235 328.861 275.729C329.076 276.223 329.378 276.597 329.766 276.852C330.154 277.107 330.608 277.235 331.128 277.235C331.648 277.235 332.102 277.107 332.49 276.852C332.878 276.597 333.178 276.223 333.39 275.729C333.606 275.235 333.713 274.628 333.713 273.909ZM337.49 279V268.818H341.507C342.276 268.818 342.933 268.956 343.476 269.231C344.023 269.503 344.439 269.889 344.724 270.389C345.012 270.886 345.157 271.471 345.157 272.144C345.157 272.82 345.011 273.402 344.719 273.889C344.427 274.373 344.005 274.744 343.451 275.003C342.901 275.261 342.235 275.391 341.453 275.391H338.763V273.661H341.105C341.516 273.661 341.857 273.604 342.129 273.491C342.401 273.379 342.603 273.21 342.735 272.984C342.871 272.759 342.939 272.479 342.939 272.144C342.939 271.806 342.871 271.521 342.735 271.289C342.603 271.057 342.399 270.881 342.124 270.762C341.852 270.639 341.509 270.578 341.095 270.578H339.643V279H337.49ZM342.989 274.366L345.52 279H343.143L340.667 274.366H342.989ZM345.657 268.818H348.069L350.39 273.203H350.49L352.812 268.818H355.223L351.509 275.401V279H349.371V275.401L345.657 268.818Z" fill="white"/>
<path d="M161.344 236H207.344V238C207.344 239.105 206.448 240 205.344 240H163.344C162.239 240 161.344 239.105 161.344 238V236Z" fill="#0F766E"/>
<rect x="210.344" y="269" width="29" height="5" fill="#0F766E"/>
<rect x="123.344" y="258" width="29" height="5" fill="#0F766E"/>
<path d="M248.056 236.024H241.96V228.056H248.056V221.96H256.024V228.056H262.12V236.024H256.024V242.12H248.056V236.024ZM252.616 239.24V232.616H259.24V231.464H252.616V224.84H251.464V231.464H244.84V232.616H251.464V239.24H252.616Z" fill="#0F766E"/>
<path d="M116 284C114.895 284 114 283.105 114 282V231.28C114 230.175 114.895 229.28 116 229.28H122.336C123.44 229.28 124.336 230.175 124.336 231.28V249.776C124.336 250.881 125.231 251.776 126.336 251.776H146.808C147.912 251.776 148.808 250.881 148.808 249.776V231.28C148.808 230.175 149.703 229.28 150.808 229.28H157.144C158.248 229.28 159.144 230.175 159.144 231.28V282C159.144 283.105 158.248 284 157.144 284H150.808C149.703 284 148.808 283.105 148.808 282V261.428H124.336V282C124.336 283.105 123.44 284 122.336 284H116Z" fill="white"/>
<path d="M181.168 284C180.064 284 179.168 283.105 179.168 282V240.932C179.168 239.827 178.273 238.932 177.168 238.932H163.344C162.239 238.932 161.344 238.037 161.344 236.932V234.5V231.28C161.344 230.175 162.239 229.28 163.344 229.28H205.344C206.448 229.28 207.344 230.175 207.344 231.28V234.5V236.932C207.344 238.037 206.448 238.932 205.344 238.932H191.504C190.4 238.932 189.504 239.827 189.504 240.932V282C189.504 283.105 188.609 284 187.504 284H181.168Z" fill="white"/>
<path d="M203.281 284C201.937 284 200.976 282.701 201.368 281.416L216.866 230.696C217.123 229.855 217.899 229.28 218.779 229.28H231.247C232.126 229.28 232.902 229.855 233.159 230.696L248.657 281.416C249.05 282.701 248.088 284 246.744 284H240.283C239.405 284 238.63 283.428 238.371 282.59L224.203 236.686C224.058 236.216 224.409 235.74 224.901 235.74C225.392 235.74 225.743 236.214 225.6 236.683L211.65 282.582C211.394 283.424 210.617 284 209.736 284H203.281ZM212.611 272.6C211.506 272.6 210.611 271.705 210.611 270.6V264.948C210.611 263.843 211.506 262.948 212.611 262.948H237.491C238.595 262.948 239.491 263.843 239.491 264.948V270.6C239.491 271.705 238.595 272.6 237.491 272.6H235.288H223.911H214.684H212.611Z" fill="white"/>
</svg>
